<svg xmlns="http://www.w3.org/2000/svg" width="7.282" height="11.88" viewBox="0 0 7.282 11.88">
  <metadata><?xpacket begin="﻿" id="W5M0MpCehiHzreSzNTczkc9d"?>
<x:xmpmeta xmlns:x="adobe:ns:meta/" x:xmptk="Adobe XMP Core 5.6-c138 79.159824, 2016/09/14-01:09:01        ">
   <rdf:RDF xmlns:rdf="http://www.w3.org/1999/02/22-rdf-syntax-ns#">
      <rdf:Description rdf:about=""/>
   </rdf:RDF>
</x:xmpmeta>
                                                                                                    
                                                                                                    
                                                                                                    
                                                                                                    
                                                                                                    
                                                                                                    
                                                                                                    
                                                                                                    
                                                                                                    
                                                                                                    
                                                                                                    
                                                                                                    
                                                                                                    
                                                                                                    
                                                                                                    
                                                                                                    
                                                                                                    
                                                                                                    
                                                                                                    
                                                                                                    
                           
<?xpacket end="w"?></metadata>
<defs>
    <style>
      .cls-1 {
        fill: #ffcb03;
        fill-rule: evenodd;
      }
    </style>
  </defs>
  <path id="Left" class="cls-1" d="M978.943,2028.99l-3.884-3.88a1.006,1.006,0,0,1,0-1.42l0.353-.35a1,1,0,0,1,1.414,0l4.573,4.57c0.008,0.01.016,0.01,0.023,0.02l0.353,0.35a0.993,0.993,0,0,1,.293.71,0.977,0.977,0,0,1-.293.71l-0.353.36a0.024,0.024,0,0,0-.023.01l-4.573,4.57a1,1,0,0,1-1.414,0l-0.353-.35a0.994,0.994,0,0,1,0-1.41Z" transform="translate(-974.781 -2023.06)"/>
</svg>
